<svg width="26" height="24" viewBox="0 0 26 24" fill="none" xmlns="http://www.w3.org/2000/svg">
<g clip-path="url(#clip0_2781_1190)">
<path d="M18.6983 0.904297L16.335 3.17305L22.6826 9.2668L25.0459 6.99805C26.2666 5.82617 26.2666 3.92773 25.0459 2.75586L23.1221 0.904297C21.9014 -0.267578 19.9239 -0.267578 18.7032 0.904297H18.6983ZM15.2315 4.23242L3.84964 15.1637C3.34182 15.6512 2.97073 16.2559 2.76565 16.9168L1.03714 22.5559C0.915067 22.9543 1.02737 23.3809 1.33011 23.6715C1.63284 23.9621 2.07718 24.0699 2.48733 23.9574L8.36136 22.298C9.04983 22.1012 9.67972 21.7449 10.1875 21.2574L21.5791 10.3262L15.2315 4.23242Z" fill="white"/>
</g>
<defs>
<clipPath id="clip0_2781_1190">
<rect width="25" height="24" fill="white" transform="translate(0.988281)"/>
</clipPath>
</defs>
</svg>
